<svg width="14" height="14" viewBox="0 0 14 14" fill="none" xmlns="http://www.w3.org/2000/svg">
<path d="M9.1875 7C9.1875 7.58016 8.95703 8.13656 8.5468 8.5468C8.13656 8.95703 7.58016 9.1875 7 9.1875C6.41984 9.1875 5.86344 8.95703 5.4532 8.5468C5.04297 8.13656 4.8125 7.58016 4.8125 7C4.8125 6.87531 4.82562 6.75354 4.84823 6.63542H4.08333V9.5499C4.08333 9.7526 4.2474 9.91667 4.4501 9.91667H9.55062C9.64777 9.91647 9.74087 9.87775 9.8095 9.80898C9.87813 9.74022 9.91667 9.64704 9.91667 9.5499V6.63542H9.15177C9.17437 6.75354 9.1875 6.87531 9.1875 7ZM7 8.45833C7.19156 8.45829 7.38123 8.42051 7.55819 8.34716C7.73515 8.27381 7.89593 8.16632 8.03135 8.03083C8.16677 7.89535 8.27417 7.73451 8.34744 7.55752C8.4207 7.38052 8.45838 7.19083 8.45833 6.99927C8.45829 6.80771 8.42051 6.61804 8.34716 6.44108C8.27381 6.26412 8.16632 6.10334 8.03083 5.96792C7.89535 5.8325 7.73451 5.7251 7.55752 5.65183C7.38052 5.57857 7.19083 5.54089 6.99927 5.54094C6.6124 5.54103 6.24141 5.69481 5.96792 5.96844C5.69443 6.24206 5.54084 6.61313 5.54094 7C5.54103 7.38687 5.69481 7.75786 5.96844 8.03135C6.24206 8.30484 6.61313 8.45843 7 8.45833ZM8.75 5.46875H9.62427C9.68235 5.46875 9.73807 5.44573 9.77921 5.40472C9.82035 5.36372 9.84356 5.30808 9.84375 5.25V4.37573C9.84375 4.31752 9.82063 4.26169 9.77947 4.22053C9.73831 4.17937 9.68248 4.15625 9.62427 4.15625H8.75C8.69179 4.15625 8.63596 4.17937 8.5948 4.22053C8.55364 4.26169 8.53052 4.31752 8.53052 4.37573V5.25C8.53125 5.37031 8.62969 5.46875 8.75 5.46875ZM7 0C5.14348 0 3.36301 0.737498 2.05025 2.05025C0.737498 3.36301 0 5.14348 0 7C0 8.85651 0.737498 10.637 2.05025 11.9497C3.36301 13.2625 5.14348 14 7 14C7.91925 14 8.8295 13.8189 9.67878 13.4672C10.5281 13.1154 11.2997 12.5998 11.9497 11.9497C12.5998 11.2997 13.1154 10.5281 13.4672 9.67878C13.8189 8.8295 14 7.91925 14 7C14 6.08075 13.8189 5.17049 13.4672 4.32122C13.1154 3.47194 12.5998 2.70026 11.9497 2.05025C11.2997 1.40024 10.5281 0.884626 9.67878 0.532843C8.8295 0.18106 7.91925 0 7 0ZM10.6458 9.83573C10.6458 10.2812 10.2812 10.6458 9.83573 10.6458H4.16427C3.71875 10.6458 3.35417 10.2812 3.35417 9.83573V4.16427C3.35417 3.71875 3.71875 3.35417 4.16427 3.35417H9.83573C10.2812 3.35417 10.6458 3.71875 10.6458 4.16427V9.83573Z" fill="#333333"/>
</svg>
