<svg width="88" height="7" viewBox="0 0 88 7" fill="none" xmlns="http://www.w3.org/2000/svg">
<path d="M4.53038 6.69533L2.24721 4.03752L1.64257 4.71083V6.69533H0.893555V0.786133H1.64257V3.84262L4.30477 0.786133H5.24331L2.73453 3.59455L5.45989 6.69533H4.53038ZM5.77223 6.25236C5.97679 6.25236 6.14525 6.12243 6.2776 5.86255C6.40996 5.60268 6.51825 5.15675 6.60248 4.52478L6.88223 2.41626H9.91443V6.69533H9.2376V3.00098H7.47785L7.27931 4.60452C7.23118 5.00615 7.165 5.34575 7.08077 5.62335C6.99654 5.90094 6.89126 6.12833 6.76492 6.30552C6.6446 6.4768 6.50021 6.60379 6.33175 6.68647C6.16931 6.76326 5.9828 6.80165 5.77223 6.80165V6.25236ZM11.2656 6.69533V2.41626H11.9424V5.68536L14.2256 2.41626H14.8934V6.69533H14.2166V3.36421L11.9153 6.69533H11.2656ZM18.2124 6.80165C17.8875 6.80165 17.5897 6.74849 17.3189 6.64218C17.0482 6.52996 16.8136 6.3764 16.615 6.18149C16.4225 5.98068 16.2691 5.74443 16.1548 5.47274C16.0465 5.19515 15.9924 4.88802 15.9924 4.55136C15.9924 4.24424 16.0465 3.95483 16.1548 3.68314C16.2631 3.40555 16.4105 3.16635 16.597 2.96554C16.7895 2.76472 17.0151 2.60525 17.2738 2.48713C17.5385 2.369 17.8273 2.30994 18.1402 2.30994C18.4711 2.30994 18.7658 2.369 19.0245 2.48713C19.2832 2.60525 19.5028 2.76768 19.6833 2.9744C19.8638 3.18112 19.9992 3.42622 20.0894 3.70972C20.1857 3.98732 20.2338 4.28558 20.2338 4.60452V4.77285H16.7053C16.7173 4.97366 16.7624 5.16561 16.8406 5.34871C16.9189 5.5259 17.0241 5.68241 17.1565 5.81826C17.2949 5.94819 17.4573 6.0545 17.6438 6.13719C17.8303 6.21397 18.0409 6.25236 18.2755 6.25236C18.5282 6.25236 18.7719 6.20511 19.0065 6.11061C19.2411 6.01611 19.4457 5.88322 19.6202 5.71194L19.945 6.14605C19.7285 6.35868 19.4758 6.5211 19.187 6.63332C18.8982 6.74554 18.5733 6.80165 18.2124 6.80165ZM19.566 4.28558C19.566 4.12611 19.5359 3.96369 19.4758 3.79832C19.4216 3.62704 19.3344 3.47347 19.2141 3.33763C19.0998 3.19588 18.9524 3.08071 18.7719 2.99211C18.5914 2.90352 18.3778 2.85923 18.1311 2.85923C17.8965 2.85923 17.6919 2.90352 17.5175 2.99211C17.343 3.08071 17.1956 3.19293 17.0753 3.32877C16.961 3.46462 16.8707 3.61818 16.8045 3.78946C16.7444 3.95483 16.7113 4.12021 16.7053 4.28558H19.566ZM21.3298 6.69533V2.41626H22.0066V4.19699H24.2808V2.41626H24.9576V6.69533H24.2808V4.78171H22.0066V6.69533H21.3298ZM27.1034 6.69533V3.00098H25.84V2.41626H29.0527V3.00098H27.7802V6.69533H27.1034ZM32.2668 6.69533V2.41626H32.9437V4.19699H35.2178V2.41626H35.8946V6.69533H35.2178V4.78171H32.9437V6.69533H32.2668ZM39.9717 6.69533V6.20807C39.6047 6.60379 39.1234 6.80165 38.5278 6.80165C38.3412 6.80165 38.1578 6.77212 37.9773 6.71305C37.7968 6.65399 37.6343 6.5654 37.49 6.44727C37.3456 6.32324 37.2282 6.17263 37.138 5.99544C37.0478 5.81826 37.0026 5.61449 37.0026 5.38414C37.0026 5.14789 37.0478 4.94118 37.138 4.76399C37.2282 4.5868 37.3456 4.43915 37.49 4.32102C37.6343 4.2029 37.7968 4.11725 37.9773 4.0641C38.1578 4.00504 38.3412 3.9755 38.5278 3.9755C38.8286 3.9755 39.0993 4.02276 39.34 4.11726C39.5866 4.21176 39.7972 4.35941 39.9717 4.56023V3.78946C39.9717 3.50005 39.8664 3.27857 39.6558 3.12501C39.4512 2.96554 39.1895 2.8858 38.8707 2.8858C38.3593 2.8858 37.9141 3.08366 37.5351 3.47938L37.2192 3.01869C37.6825 2.54619 38.263 2.30994 38.9609 2.30994C39.1895 2.30994 39.4061 2.33652 39.6107 2.38968C39.8152 2.44283 39.9927 2.52848 40.1431 2.6466C40.2995 2.75882 40.4229 2.90648 40.5131 3.08957C40.6034 3.27266 40.6485 3.49415 40.6485 3.75402V6.69533H39.9717ZM38.7714 6.32324C39.0121 6.32324 39.2377 6.27894 39.4482 6.19035C39.6648 6.10175 39.8393 5.96886 39.9717 5.79168V4.98547C39.8393 4.80829 39.6648 4.6754 39.4482 4.5868C39.2377 4.49821 39.0121 4.45391 38.7714 4.45391C38.4526 4.45391 38.1939 4.54251 37.9953 4.71969C37.7968 4.89097 37.697 5.11541 37.697 5.393C37.697 5.66469 37.7968 5.88913 37.9953 6.06632C38.1939 6.2376 38.4526 6.32324 38.7714 6.32324ZM44.3314 6.69533V2.41626H46.7319C47.117 2.41626 47.4178 2.51961 47.6344 2.72633C47.8509 2.92714 47.9592 3.18998 47.9592 3.51482C47.9592 3.77469 47.887 3.98732 47.7427 4.15269C47.6043 4.31807 47.4418 4.43029 47.2553 4.48935C47.3636 4.51888 47.4659 4.56613 47.5622 4.6311C47.6584 4.69607 47.7427 4.7758 47.8148 4.8703C47.887 4.9648 47.9442 5.06816 47.9863 5.18038C48.0284 5.2926 48.0495 5.41072 48.0495 5.53475C48.0495 5.88322 47.9382 6.16377 47.7156 6.37639C47.493 6.58902 47.1801 6.69533 46.7771 6.69533H44.3314ZM46.6417 6.11061C46.8583 6.11061 47.0297 6.05451 47.1561 5.94229C47.2824 5.82416 47.3456 5.66174 47.3456 5.45502C47.3456 5.28374 47.2854 5.13018 47.1651 4.99433C47.0448 4.85849 46.8703 4.79057 46.6417 4.79057H45.0083V6.11061H46.6417ZM46.6146 4.20585C46.8252 4.20585 46.9846 4.14974 47.0929 4.03752C47.2072 3.9253 47.2644 3.78355 47.2644 3.61227C47.2644 3.42327 47.2072 3.27561 47.0929 3.1693C46.9846 3.05708 46.8252 3.00098 46.6146 3.00098H45.0083V4.20585H46.6146ZM51.2506 6.80165C50.9258 6.80165 50.628 6.74554 50.3572 6.63332C50.0925 6.51519 49.8639 6.35572 49.6714 6.15491C49.4849 5.9541 49.3375 5.71785 49.2292 5.44616C49.1269 5.16857 49.0758 4.8703 49.0758 4.55136C49.0758 4.23243 49.1269 3.93712 49.2292 3.66543C49.3375 3.39374 49.4849 3.15749 49.6714 2.95668C49.8639 2.75586 50.0925 2.59935 50.3572 2.48713C50.628 2.369 50.9258 2.30994 51.2506 2.30994C51.6477 2.30994 51.9696 2.38082 52.2162 2.52257C52.4689 2.66432 52.6795 2.8415 52.848 3.05413L52.3967 3.46166C52.2523 3.26676 52.0869 3.12501 51.9004 3.03641C51.7199 2.94782 51.5154 2.90352 51.2867 2.90352C51.0521 2.90352 50.8415 2.94486 50.655 3.02755C50.4745 3.11024 50.3181 3.22541 50.1858 3.37307C50.0534 3.52072 49.9511 3.69496 49.8789 3.89577C49.8128 4.09658 49.7797 4.31511 49.7797 4.55136C49.7797 4.78761 49.8128 5.0091 49.8789 5.21582C49.9511 5.41663 50.0534 5.59086 50.1858 5.73852C50.3181 5.88618 50.4745 6.00135 50.655 6.08404C50.8415 6.16673 51.0521 6.20807 51.2867 6.20807C51.744 6.20807 52.114 6.02202 52.3967 5.64993L52.848 6.05746C52.6795 6.27008 52.4689 6.44727 52.2162 6.58902C51.9696 6.73077 51.6477 6.80165 51.2506 6.80165ZM57.4514 6.80165C57.1446 6.80165 56.8648 6.75144 56.6121 6.65104C56.3594 6.54473 56.1399 6.40002 55.9533 6.21693C55.7668 6.03383 55.6194 5.82121 55.5111 5.57905C55.4029 5.33099 55.3367 5.06521 55.3126 4.78171H54.4733V6.69533H53.7965V2.41626H54.4733V4.19699H55.3216C55.3577 3.93121 55.4329 3.68315 55.5472 3.4528C55.6616 3.22246 55.809 3.0246 55.9894 2.85923C56.1759 2.68794 56.3895 2.55505 56.6302 2.46055C56.8768 2.36015 57.1506 2.30994 57.4514 2.30994C57.7823 2.30994 58.0801 2.369 58.3448 2.48713C58.6155 2.60525 58.8442 2.76472 59.0307 2.96554C59.2232 3.16635 59.3676 3.40555 59.4638 3.68314C59.5661 3.95483 59.6172 4.24424 59.6172 4.55136C59.6172 4.86439 59.5661 5.15676 59.4638 5.42844C59.3676 5.70013 59.2232 5.93933 59.0307 6.14605C58.8442 6.34687 58.6155 6.50633 58.3448 6.62446C58.0801 6.74258 57.7823 6.80165 57.4514 6.80165ZM57.4514 6.20807C57.686 6.20807 57.8936 6.16377 58.0741 6.07518C58.2546 5.98068 58.405 5.8596 58.5253 5.71194C58.6516 5.55838 58.7449 5.38119 58.8051 5.18038C58.8712 4.97957 58.9043 4.76989 58.9043 4.55136C58.9043 4.33283 58.8712 4.12612 58.8051 3.93121C58.7449 3.7304 58.6516 3.55616 58.5253 3.4085C58.405 3.25494 58.2546 3.13386 58.0741 3.04527C57.8936 2.95077 57.686 2.90352 57.4514 2.90352C57.2228 2.90352 57.0182 2.95077 56.8377 3.04527C56.6572 3.13386 56.5038 3.25494 56.3775 3.4085C56.2572 3.55616 56.1639 3.7304 56.0977 3.93121C56.0376 4.12612 56.0075 4.33283 56.0075 4.55136C56.0075 4.76989 56.0376 4.97957 56.0977 5.18038C56.1639 5.38119 56.2572 5.55838 56.3775 5.71194C56.5038 5.8596 56.6572 5.98068 56.8377 6.07518C57.0182 6.16377 57.2228 6.20807 57.4514 6.20807ZM62.491 6.69533L64.4313 4.35646L62.5 2.41626H63.3573L65.2344 4.3033V2.41626H65.9113V4.29444L67.7883 2.41626H68.6456L66.7054 4.35646L68.6547 6.69533H67.7883L66.2181 4.77285L65.9113 5.07407V6.69533H65.2344V5.07407L64.9276 4.77285L63.3573 6.69533H62.491ZM69.4573 6.69533V2.41626H70.1342V5.68536L72.4173 2.41626H73.0851V6.69533H72.4083V3.36421L70.1071 6.69533H69.4573ZM75.9795 6.80165C75.5403 6.80165 75.1552 6.73963 74.8243 6.6156C74.4995 6.48566 74.2287 6.31438 74.0121 6.10175L74.346 5.67651C74.5506 5.86551 74.7913 6.01021 75.068 6.11061C75.3508 6.20511 75.6546 6.25236 75.9795 6.25236C76.3705 6.25236 76.6804 6.18444 76.909 6.0486C77.1436 5.91275 77.2609 5.73261 77.2609 5.50818C77.2609 5.37824 77.2248 5.26897 77.1526 5.18038C77.0804 5.08588 76.9812 5.01205 76.8548 4.9589C76.7345 4.89983 76.5901 4.85849 76.4217 4.83487C76.2592 4.81124 76.0817 4.79943 75.8892 4.79943H74.9146V4.25901H75.8892C76.0697 4.25901 76.2382 4.24424 76.3946 4.21471C76.551 4.18518 76.6864 4.14088 76.8007 4.08182C76.921 4.02276 77.0143 3.94893 77.0804 3.86033C77.1466 3.77174 77.1797 3.66543 77.1797 3.5414C77.1797 3.44099 77.1466 3.34944 77.0804 3.26675C77.0143 3.17816 76.924 3.10433 76.8097 3.04527C76.7014 2.98621 76.5691 2.94191 76.4126 2.91238C76.2562 2.87694 76.0878 2.85923 75.9073 2.85923C75.2996 2.85923 74.8123 3.04232 74.4453 3.4085L74.0934 3.00098C74.2979 2.79426 74.5476 2.62888 74.8424 2.50485C75.1372 2.38082 75.4831 2.3188 75.8802 2.3188C76.175 2.3188 76.4427 2.34538 76.6834 2.39854C76.93 2.44579 77.1406 2.51962 77.3151 2.62002C77.4956 2.71452 77.6339 2.83265 77.7302 2.9744C77.8325 3.11615 77.8836 3.27857 77.8836 3.46166C77.8836 3.62113 77.8445 3.76288 77.7663 3.88691C77.6941 4.01094 77.6008 4.11726 77.4865 4.20585C77.3722 4.28854 77.2459 4.35646 77.1075 4.40962C76.9691 4.45687 76.8368 4.48935 76.7104 4.50707C76.8368 4.51888 76.9721 4.54546 77.1165 4.5868C77.2669 4.62815 77.4053 4.69311 77.5317 4.78171C77.658 4.8644 77.7633 4.97071 77.8475 5.10065C77.9317 5.22468 77.9739 5.37529 77.9739 5.55247C77.9739 5.72966 77.9287 5.89503 77.8385 6.0486C77.7482 6.20216 77.6159 6.33505 77.4414 6.44727C77.273 6.55949 77.0654 6.64513 76.8187 6.70419C76.5721 6.76916 76.2923 6.80165 75.9795 6.80165ZM79.0718 6.69533V2.41626H79.7486V4.19699H82.0228V2.41626H82.6996V6.69533H82.0228V4.78171H79.7486V6.69533H79.0718ZM84.7281 2.41626V4.07296H86.3615C86.5841 4.07296 86.7797 4.1084 86.9481 4.17927C87.1226 4.25015 87.267 4.3476 87.3813 4.47163C87.5016 4.58976 87.5888 4.72855 87.643 4.88802C87.7031 5.04158 87.7332 5.20696 87.7332 5.38414C87.7332 5.56133 87.7031 5.72966 87.643 5.88913C87.5828 6.0486 87.4956 6.1874 87.3813 6.30552C87.267 6.42365 87.1226 6.51814 86.9481 6.58902C86.7797 6.65989 86.5841 6.69533 86.3615 6.69533H84.0513V2.41626H84.7281ZM84.7281 4.65768V6.11061H86.2893C86.536 6.11061 86.7225 6.04269 86.8488 5.90685C86.9752 5.77101 87.0384 5.59677 87.0384 5.38414C87.0384 5.17743 86.9752 5.00615 86.8488 4.8703C86.7285 4.72855 86.542 4.65768 86.2893 4.65768H84.7281Z" fill="#ACACAC"/>
</svg>
