<svg width="116" height="14" viewBox="0 0 116 14" fill="none" xmlns="http://www.w3.org/2000/svg">
<path d="M6.7333 12.9141H4.15233V3.31051H0.632812V1.09566H10.2348V3.31051H6.7333V12.9141ZM18.0429 13.1267C16.226 13.1267 14.7219 12.5538 13.5307 11.408C12.3515 10.2504 11.7619 8.7856 11.7619 7.01373C11.7619 5.24185 12.3515 3.78301 13.5307 2.63719C14.7219 1.47957 16.226 0.900757 18.0429 0.900757C19.8718 0.900757 21.3759 1.47366 22.5551 2.61948C23.7463 3.76529 24.3419 5.23004 24.3419 7.01373C24.3419 8.79741 23.7463 10.2622 22.5551 11.408C21.3759 12.5538 19.8718 13.1267 18.0429 13.1267ZM15.3897 9.79557C16.0635 10.5279 16.9479 10.8941 18.0429 10.8941C19.1378 10.8941 20.0222 10.5279 20.696 9.79557C21.3699 9.0632 21.7068 8.13591 21.7068 7.01373C21.7068 5.89154 21.3699 4.96426 20.696 4.23188C20.0222 3.49951 19.1378 3.13332 18.0429 3.13332C16.9479 3.13332 16.0635 3.49951 15.3897 4.23188C14.7279 4.96426 14.397 5.89154 14.397 7.01373C14.397 8.13591 14.7279 9.0632 15.3897 9.79557ZM29.6061 12.9141H27.0432V1.09566H32.6744C33.9378 1.09566 34.9245 1.46185 35.6344 2.19423C36.3564 2.91479 36.7173 3.81844 36.7173 4.90519C36.7173 5.98013 36.3564 6.88379 35.6344 7.61616C34.9125 8.34854 33.9258 8.71473 32.6744 8.71473H29.6061V12.9141ZM32.3315 6.49988C32.8489 6.49988 33.27 6.35813 33.5949 6.07463C33.9318 5.77932 34.1003 5.38951 34.1003 4.90519C34.1003 4.42088 33.9318 4.03698 33.5949 3.75348C33.27 3.45816 32.8489 3.31051 32.3315 3.31051H29.6061V6.49988H32.3315ZM43.4856 13.1267C41.3438 13.1267 39.6473 12.5006 38.3959 11.2485L39.7856 9.33488C40.8204 10.398 42.0959 10.9296 43.612 10.9296C44.2738 10.9296 44.7852 10.8055 45.1461 10.5575C45.5191 10.2976 45.7056 9.98457 45.7056 9.61838C45.7056 9.29945 45.5312 9.03366 45.1822 8.82104C44.8453 8.60841 44.4182 8.45485 43.9008 8.36035C43.3954 8.26585 42.8419 8.13001 42.2403 7.95282C41.6386 7.77563 41.0791 7.57482 40.5617 7.35038C40.0564 7.12594 39.6292 6.77157 39.2803 6.28726C38.9434 5.80294 38.7749 5.21232 38.7749 4.51538C38.7749 3.49951 39.19 2.64901 40.0203 1.96388C40.8505 1.26694 41.9575 0.918475 43.3413 0.918475C45.2544 0.918475 46.8186 1.46776 48.0339 2.56632L46.6081 4.40907C45.6575 3.54676 44.4904 3.1156 43.1066 3.1156C42.5652 3.1156 42.144 3.22191 41.8432 3.43454C41.5424 3.64716 41.392 3.93657 41.392 4.30276C41.392 4.58626 41.5604 4.82841 41.8973 5.02923C42.2463 5.21823 42.6734 5.35998 43.1788 5.45448C43.6962 5.54898 44.2497 5.69073 44.8393 5.87973C45.4409 6.05691 45.9944 6.26363 46.4998 6.49988C47.0172 6.72432 47.4443 7.0846 47.7813 7.58073C48.1302 8.06504 48.3047 8.64976 48.3047 9.33488C48.3047 10.4689 47.8895 11.3843 47.0593 12.0813C46.2411 12.7782 45.0499 13.1267 43.4856 13.1267ZM59.4518 12.9141H50.9328V1.09566H59.4518V3.31051H53.4957V5.80885H59.3255V8.0237H53.4957V10.6992H59.4518V12.9141ZM72.1045 12.9141H69.1625L66.7981 8.71473H64.9211V12.9141H62.3582V1.09566H67.9894C69.2287 1.09566 70.2094 1.45004 70.9313 2.15879C71.6653 2.86754 72.0323 3.78301 72.0323 4.90519C72.0323 5.87382 71.7736 6.65935 71.2562 7.26179C70.7508 7.86422 70.1312 8.24813 69.3972 8.41351L72.1045 12.9141ZM67.6104 6.49988C68.1398 6.49988 68.5729 6.35813 68.9099 6.07463C69.2468 5.77932 69.4152 5.38951 69.4152 4.90519C69.4152 4.42088 69.2468 4.03698 68.9099 3.75348C68.5729 3.45816 68.1398 3.31051 67.6104 3.31051H64.9211V6.49988H67.6104ZM81.2698 12.9141H78.0571L73.4005 1.09566H76.3244L79.6634 10.1854L82.9844 1.09566H85.9083L81.2698 12.9141ZM90.4852 12.9141H87.9222V1.09566H90.4852V12.9141ZM99.6073 13.1267C97.7784 13.1267 96.2503 12.5597 95.0229 11.4257C93.8077 10.2799 93.2 8.80923 93.2 7.01373C93.2 5.21823 93.8077 3.75348 95.0229 2.61948C96.2503 1.47366 97.7784 0.900757 99.6073 0.900757C101.857 0.900757 103.536 1.86348 104.643 3.78891L102.441 4.85204C102.176 4.35591 101.785 3.94838 101.268 3.62945C100.762 3.2987 100.209 3.13332 99.6073 3.13332C98.5124 3.13332 97.6099 3.49951 96.9 4.23188C96.1901 4.96426 95.8351 5.89154 95.8351 7.01373C95.8351 8.13591 96.1901 9.0632 96.9 9.79557C97.6099 10.5279 98.5124 10.8941 99.6073 10.8941C100.209 10.8941 100.762 10.7347 101.268 10.4157C101.785 10.0968 102.176 9.68335 102.441 9.17541L104.643 10.2208C103.5 12.1581 101.821 13.1267 99.6073 13.1267ZM115.59 12.9141H107.071V1.09566H115.59V3.31051H109.634V5.80885H115.464V8.0237H109.634V10.6992H115.59V12.9141Z" fill="#535353"/>
</svg>
