<svg width="57" height="59" viewBox="0 0 57 59" fill="none" xmlns="http://www.w3.org/2000/svg">
<path d="M55.8048 29.5191L38.1212 23.9121V27.5459L44.132 29.4518C44.1449 29.4559 44.1562 29.4639 44.1642 29.4747C44.1722 29.4855 44.1766 29.4985 44.1766 29.5119C44.1766 29.5253 44.1722 29.5383 44.1642 29.5491C44.1562 29.5599 44.1449 29.5679 44.132 29.572L38.1212 31.4681V35.0994L55.8048 29.5191ZM29.6916 51.0057L34.7522 57.8697C34.7473 53.1748 34.7445 48.4793 34.7438 43.7843C34.7438 39.0228 34.745 34.2624 34.7474 29.5032C34.7544 20.0454 34.7689 10.5892 34.791 1.13452C29.7351 7.97134 24.6952 14.8147 19.6715 21.6645L21.4543 22.2298L23.7851 22.9671L29.6899 15.1166V51.0057H29.6916ZM34.7648 58.1021L29.562 51.0466V15.5133L23.8355 23.1182L21.415 22.3526L19.4654 21.7324C24.5986 14.7147 29.7505 7.71786 34.921 0.741943V0.937204C34.8979 10.4604 34.8827 19.9824 34.8754 29.5032C34.8723 34.2648 34.871 39.0252 34.8717 43.7843C34.8724 48.5438 34.8752 53.3037 34.8801 58.0651V58.2605L34.7632 58.1021H34.7648ZM22.2257 40.8848L26.3057 46.4188V40.5204L23.1302 36.2129L10.0269 40.4028L18.1571 29.4985L10.0358 18.5707L16.3077 20.5855L18.4691 17.6381L0.755114 11.9473L13.7929 29.4867L0.723127 47.0175L21.7841 40.2861L22.2257 40.8848ZM26.3183 46.6516L21.7333 40.4341L0.382812 47.2602L13.6334 29.4867L0.415847 11.7047C6.50333 13.6594 12.5903 15.6149 18.6768 17.5713L16.357 20.7344L10.3751 18.8106L18.3171 29.4985L10.3672 40.1607L23.1805 36.0639L26.4368 40.4829V46.8103L26.3199 46.6516H26.3183ZM38.0745 23.7646L56.0329 29.459C56.0425 29.4621 56.0515 29.4675 56.059 29.4746C56.066 29.4818 56.0716 29.4905 56.0751 29.5001C56.0801 29.516 56.0786 29.5333 56.0705 29.5482C56.0625 29.563 56.049 29.5741 56.0329 29.5792L38.0808 35.2448C38.0732 35.2479 38.065 35.2495 38.0567 35.2495C38.0395 35.2495 38.0231 35.2428 38.0109 35.2309C37.9987 35.2191 37.9918 35.203 37.9917 35.1863V31.4219C37.9918 31.4085 37.9962 31.3954 38.0043 31.3846C38.0124 31.3739 38.0238 31.3658 38.0368 31.3617L43.9018 29.5119L38.041 27.6528C38.027 27.6493 38.0145 27.6414 38.0056 27.6302C37.9967 27.6191 37.9918 27.6053 37.9917 27.5912V23.8252L37.9953 23.8057C38.0007 23.7899 38.012 23.7767 38.0272 23.769C38.0423 23.7613 38.0598 23.7597 38.0761 23.7646H38.0745Z" fill="url(#paint0_linear)"/>
<defs>
<linearGradient id="paint0_linear" x1="0.0294775" y1="29.4122" x2="59.0712" y2="29.4122" gradientUnits="userSpaceOnUse">
<stop stop-color="#FFBF45"/>
<stop offset="0.28" stop-color="#FFDD25"/>
<stop offset="0.58" stop-color="#FFE626"/>
<stop offset="0.79" stop-color="#FFE017"/>
<stop offset="1" stop-color="#FFC83C"/>
</linearGradient>
</defs>
</svg>
