<svg width="14" height="14" viewBox="0 0 14 14" fill="none" xmlns="http://www.w3.org/2000/svg">
<path d="M13.8441 6.09172H12.2602C12.1702 6.09172 12.0842 6.13061 12.0236 6.19866L7.74307 11.1043V0.15555C7.74307 0.0699974 7.67267 0 7.58664 0H6.41336C6.32733 0 6.25693 0.0699974 6.25693 0.15555V11.1043L1.97645 6.19866C1.91779 6.13061 1.83175 6.09172 1.73984 6.09172H0.155925C0.0229545 6.09172 -0.0493972 6.24922 0.0385981 6.34838L6.52874 13.7856C6.5874 13.8529 6.65993 13.9069 6.74141 13.9439C6.82289 13.9809 6.91141 14 7.00098 14C7.09055 14 7.17907 13.9809 7.26054 13.9439C7.34202 13.9069 7.41455 13.8529 7.47322 13.7856L13.9614 6.34838C14.0494 6.24727 13.977 6.09172 13.8441 6.09172Z" fill="#FFC300"/>
</svg>
