<svg width="63" height="63" viewBox="0 0 63 63" fill="none" xmlns="http://www.w3.org/2000/svg">
<path d="M31.5 63C14.1302 63 0 48.8698 0 31.5C0 14.1302 14.1302 0 31.5 0C48.8698 0 63 14.1302 63 31.5C63 48.8698 48.8698 63 31.5 63ZM31.5 3.9375C16.3013 3.9375 3.9375 16.3013 3.9375 31.5C3.9375 46.6987 16.3013 59.0625 31.5 59.0625C46.6987 59.0625 59.0625 46.6987 59.0625 31.5C59.0625 16.3013 46.6987 3.9375 31.5 3.9375Z" fill="#383838"/>
<path d="M45.2812 48.5626C44.777 48.5626 44.2733 48.3709 43.8898 47.9849L30.1085 34.2036C29.7384 33.8335 29.5312 33.3322 29.5312 32.8126V14.4373C29.5312 13.3506 30.4132 12.4686 31.5 12.4686C32.5868 12.4686 33.4688 13.3506 33.4688 14.4373V31.996L46.6727 45.2C47.4418 45.969 47.4418 47.2158 46.6727 47.9849C46.2892 48.3709 45.7855 48.5626 45.2812 48.5626Z" fill="#FFB800"/>
</svg>
