<svg width="134" height="175" viewBox="0 0 134 175" fill="none" xmlns="http://www.w3.org/2000/svg">
<circle cx="3.01205" cy="3.01205" r="3.01205" fill="#FFB800"/>
<circle cx="21.1739" cy="3.01205" r="3.01205" fill="#FFB800"/>
<circle cx="39.3358" cy="3.01205" r="3.01205" fill="#FFB800"/>
<circle cx="57.4979" cy="3.01205" r="3.01205" fill="#FFB800"/>
<circle cx="75.6598" cy="3.01205" r="3.01205" fill="#FFB800"/>
<circle cx="93.8216" cy="3.01205" r="3.01205" fill="#FFB800"/>
<circle cx="111.983" cy="3.01205" r="3.01205" fill="#FFB800"/>
<circle cx="130.145" cy="3.01205" r="3.01205" fill="#FFB800"/>
<circle cx="3.01205" cy="18.3062" r="3.01205" fill="#FFB800"/>
<circle cx="21.1739" cy="18.3062" r="3.01205" fill="#FFB800"/>
<circle cx="39.3358" cy="18.3062" r="3.01205" fill="#FFB800"/>
<circle cx="57.4979" cy="18.3062" r="3.01205" fill="#FFB800"/>
<circle cx="75.6598" cy="18.3062" r="3.01205" fill="#FFB800"/>
<circle cx="93.8216" cy="18.3062" r="3.01205" fill="#FFB800"/>
<circle cx="111.983" cy="18.3062" r="3.01205" fill="#FFB800"/>
<circle cx="130.145" cy="18.3062" r="3.01205" fill="#FFB800"/>
<circle cx="3.01205" cy="33.6004" r="3.01205" fill="#FFB800"/>
<circle cx="21.1739" cy="33.6003" r="3.01205" fill="#FFB800"/>
<circle cx="39.3358" cy="33.6003" r="3.01205" fill="#FFB800"/>
<circle cx="57.4979" cy="33.6003" r="3.01205" fill="#FFB800"/>
<circle cx="75.6598" cy="33.6003" r="3.01205" fill="#FFB800"/>
<circle cx="93.8216" cy="33.6003" r="3.01205" fill="#FFB800"/>
<circle cx="111.983" cy="33.6003" r="3.01205" fill="#FFB800"/>
<circle cx="130.145" cy="33.6003" r="3.01205" fill="#FFB800"/>
<circle cx="3.01205" cy="48.8949" r="3.01205" fill="#FFB800"/>
<circle cx="21.1739" cy="48.895" r="3.01205" fill="#FFB800"/>
<circle cx="39.3358" cy="48.895" r="3.01205" fill="#FFB800"/>
<circle cx="57.4979" cy="48.895" r="3.01205" fill="#FFB800"/>
<circle cx="75.6598" cy="48.895" r="3.01205" fill="#FFB800"/>
<circle cx="93.8216" cy="48.895" r="3.01205" fill="#FFB800"/>
<circle cx="111.983" cy="48.895" r="3.01205" fill="#FFB800"/>
<circle cx="130.145" cy="48.895" r="3.01205" fill="#FFB800"/>
<circle cx="3.01205" cy="64.189" r="3.01205" fill="#FFB800"/>
<circle cx="21.1739" cy="64.189" r="3.01205" fill="#FFB800"/>
<circle cx="39.3358" cy="64.189" r="3.01205" fill="#FFB800"/>
<circle cx="57.4979" cy="64.189" r="3.01205" fill="#FFB800"/>
<circle cx="75.6598" cy="64.189" r="3.01205" fill="#FFB800"/>
<circle cx="93.8216" cy="64.189" r="3.01205" fill="#FFB800"/>
<circle cx="111.983" cy="64.189" r="3.01205" fill="#FFB800"/>
<circle cx="130.145" cy="64.1892" r="3.01205" fill="#FFB800"/>
<circle cx="3.01205" cy="79.4832" r="3.01205" fill="#FFB800"/>
<circle cx="21.1739" cy="79.4832" r="3.01205" fill="#FFB800"/>
<circle cx="39.3358" cy="79.4832" r="3.01205" fill="#FFB800"/>
<circle cx="57.4979" cy="79.4832" r="3.01205" fill="#FFB800"/>
<circle cx="75.6598" cy="79.4832" r="3.01205" fill="#FFB800"/>
<circle cx="93.8216" cy="79.4832" r="3.01205" fill="#FFB800"/>
<circle cx="111.983" cy="79.4832" r="3.01205" fill="#FFB800"/>
<circle cx="130.145" cy="79.4832" r="3.01205" fill="#FFB800"/>
<circle cx="3.01205" cy="125.366" r="3.01205" fill="#FFB800"/>
<circle cx="21.1739" cy="125.366" r="3.01205" fill="#FFB800"/>
<circle cx="39.3358" cy="125.366" r="3.01205" fill="#FFB800"/>
<circle cx="57.4979" cy="125.366" r="3.01205" fill="#FFB800"/>
<circle cx="75.6598" cy="125.366" r="3.01205" fill="#FFB800"/>
<circle cx="93.8216" cy="125.366" r="3.01205" fill="#FFB800"/>
<circle cx="111.983" cy="125.366" r="3.01205" fill="#FFB800"/>
<circle cx="130.145" cy="125.366" r="3.01205" fill="#FFB800"/>
<circle cx="3.01205" cy="94.7774" r="3.01205" fill="#FFB800"/>
<circle cx="21.1739" cy="94.7774" r="3.01205" fill="#FFB800"/>
<circle cx="39.3358" cy="94.7774" r="3.01205" fill="#FFB800"/>
<circle cx="57.4979" cy="94.7774" r="3.01205" fill="#FFB800"/>
<circle cx="75.6598" cy="94.7774" r="3.01205" fill="#FFB800"/>
<circle cx="93.8216" cy="94.7774" r="3.01205" fill="#FFB800"/>
<circle cx="111.983" cy="94.7774" r="3.01205" fill="#FFB800"/>
<circle cx="130.145" cy="94.7774" r="3.01205" fill="#FFB800"/>
<circle cx="3.01205" cy="140.66" r="3.01205" fill="#FFB800"/>
<circle cx="21.1739" cy="140.66" r="3.01205" fill="#FFB800"/>
<circle cx="39.3358" cy="140.66" r="3.01205" fill="#FFB800"/>
<circle cx="57.4979" cy="140.66" r="3.01205" fill="#FFB800"/>
<circle cx="75.6598" cy="140.66" r="3.01205" fill="#FFB800"/>
<circle cx="93.8216" cy="140.66" r="3.01205" fill="#FFB800"/>
<circle cx="111.983" cy="140.66" r="3.01205" fill="#FFB800"/>
<circle cx="130.145" cy="140.66" r="3.01205" fill="#FFB800"/>
<circle cx="3.01205" cy="110.072" r="3.01205" fill="#FFB800"/>
<circle cx="21.1739" cy="110.072" r="3.01205" fill="#FFB800"/>
<circle cx="39.3358" cy="110.072" r="3.01205" fill="#FFB800"/>
<circle cx="57.4979" cy="110.072" r="3.01205" fill="#FFB800"/>
<circle cx="75.6598" cy="110.072" r="3.01205" fill="#FFB800"/>
<circle cx="93.8216" cy="110.072" r="3.01205" fill="#FFB800"/>
<circle cx="111.983" cy="110.072" r="3.01205" fill="#FFB800"/>
<circle cx="130.145" cy="110.072" r="3.01205" fill="#FFB800"/>
<circle cx="3.01205" cy="155.954" r="3.01205" fill="#FFB800"/>
<circle cx="21.1739" cy="155.954" r="3.01205" fill="#FFB800"/>
<circle cx="39.3358" cy="155.954" r="3.01205" fill="#FFB800"/>
<circle cx="57.4979" cy="155.954" r="3.01205" fill="#FFB800"/>
<circle cx="75.6598" cy="155.954" r="3.01205" fill="#FFB800"/>
<circle cx="93.8216" cy="155.954" r="3.01205" fill="#FFB800"/>
<circle cx="111.983" cy="155.954" r="3.01205" fill="#FFB800"/>
<circle cx="130.145" cy="155.954" r="3.01205" fill="#FFB800"/>
<circle cx="3.01205" cy="171.249" r="3.01205" fill="#FFB800"/>
<circle cx="21.1739" cy="171.249" r="3.01205" fill="#FFB800"/>
<circle cx="39.3358" cy="171.249" r="3.01205" fill="#FFB800"/>
<circle cx="57.4979" cy="171.249" r="3.01205" fill="#FFB800"/>
<circle cx="75.6598" cy="171.249" r="3.01205" fill="#FFB800"/>
<circle cx="93.8216" cy="171.249" r="3.01205" fill="#FFB800"/>
<circle cx="111.983" cy="171.249" r="3.01205" fill="#FFB800"/>
<circle cx="130.145" cy="171.249" r="3.01205" fill="#FFB800"/>
</svg>
