<svg width="71" height="83" viewBox="0 0 71 83" fill="none" xmlns="http://www.w3.org/2000/svg">
<path d="M35.5631 17.8899C23.8156 17.8899 14.218 27.4875 14.218 39.2349C14.218 45.3774 16.9053 51.2895 21.4354 55.2821C24.8138 58.6605 24.5066 65.8779 24.4299 65.9546C24.4299 66.3386 24.5066 66.6457 24.8138 66.9528C25.0441 67.1831 25.428 67.3367 25.7351 67.3367H45.3142C45.6981 67.3367 46.0053 67.1831 46.2356 66.9528C46.4659 66.7225 46.6195 66.3386 46.6195 65.9546C46.6195 65.8779 46.2356 58.6605 49.6139 55.2821C49.6907 55.2053 49.7675 55.1286 49.8443 55.0518C54.2976 50.9824 56.9081 45.2238 56.9081 39.2349C56.9081 27.4875 47.3105 17.8899 35.5631 17.8899ZM47.848 53.2858C47.7712 53.3626 47.6176 53.5162 47.6176 53.5929C44.6232 56.8177 44.0857 62.1156 44.0089 64.6494H27.0404C26.9636 62.1156 26.4262 56.5874 23.2014 53.2858C19.132 49.7539 16.7518 44.6096 16.7518 39.1582C16.7518 28.7928 25.1209 20.4237 35.4863 20.4237C45.8517 20.4237 54.2208 28.7928 54.2208 39.1582C54.2208 44.6096 51.9174 49.7539 47.848 53.2858Z" fill="#383838"/>
<path d="M34.3862 23C33.6523 23 33 23.6524 33 24.3863C33 25.1202 33.6523 25.7725 34.3862 25.7725C42.622 25.7725 49.2269 32.4592 49.2269 40.6137C49.2269 41.3476 49.8793 42 50.6132 42C51.347 42 51.9994 41.3476 51.9994 40.6137C52.0809 30.9099 44.1713 23 34.3862 23Z" fill="#FFB800"/>
<path d="M44.0089 68.7955H26.9636C25.1976 68.7955 23.7388 70.2544 23.7388 72.0203C23.7388 73.7863 25.1976 75.2451 26.9636 75.2451H43.9321C45.7748 75.1683 47.2337 73.7863 47.2337 72.0203C47.2337 70.2544 45.7748 68.7955 44.0089 68.7955ZM44.0089 72.5578H26.9636C26.6564 72.5578 26.3493 72.3274 26.3493 71.9435C26.3493 71.5596 26.5797 71.3293 26.9636 71.3293H43.9321C44.2392 71.3293 44.5463 71.5596 44.5463 71.9435C44.5463 72.3274 44.316 72.5578 44.0089 72.5578Z" fill="#383838"/>
<path d="M41.4751 76.5504H29.4973C27.7313 76.5504 26.2725 78.0093 26.2725 79.7752C26.2725 81.5412 27.7313 83 29.4973 83H41.4751C43.241 83 44.6999 81.5412 44.6999 79.7752C44.6999 77.9325 43.241 76.5504 41.4751 76.5504ZM41.4751 80.3127H29.4973C29.1901 80.3127 28.883 80.0823 28.883 79.6984C28.883 79.3145 29.1134 79.0842 29.4973 79.0842H41.4751C41.7822 79.0842 42.0893 79.3145 42.0893 79.6984C42.0893 80.0823 41.7822 80.3127 41.4751 80.3127Z" fill="#383838"/>
<path d="M35.4862 11.5171C36.254 11.5171 36.7915 10.9029 36.7915 10.2118V1.30527C36.7915 0.614246 36.1772 0 35.4862 0C34.7952 0 34.1809 0.614246 34.1809 1.30527V10.2118C34.1809 10.9029 34.7952 11.5171 35.4862 11.5171Z" fill="#383838"/>
<path d="M57.2151 6.60315C56.6009 6.14246 55.8331 6.3728 55.4492 6.91027L50.5352 14.2812C50.0745 14.8955 50.2281 15.7401 50.8423 16.124C51.0727 16.2775 51.303 16.3543 51.5333 16.3543C51.994 16.3543 52.3779 16.124 52.6083 15.7401L57.5222 8.3691C57.9829 7.83164 57.8294 6.98705 57.2151 6.60315Z" fill="#383838"/>
<path d="M19.8997 16.0472C20.1301 16.0472 20.3604 15.9704 20.5908 15.8168C21.205 15.4329 21.3586 14.5883 20.9747 13.9741L16.2143 6.52637C15.8304 5.91213 14.9858 5.75856 14.3715 6.14247C13.7573 6.52637 13.6037 7.37096 13.9876 7.98521L18.748 15.4329C19.0552 15.8936 19.4391 16.0472 19.8997 16.0472Z" fill="#383838"/>
<path d="M10.6093 24.186L2.85446 19.963C2.24022 19.6559 1.39563 19.8862 1.0885 20.5005C0.7046 21.1147 0.934942 21.9593 1.62597 22.2664L9.38083 26.4894C9.61117 26.5662 9.76473 26.643 9.99507 26.643C10.4558 26.643 10.9164 26.4126 11.1468 25.9519C11.4539 25.3377 11.2236 24.4931 10.6093 24.186Z" fill="#383838"/>
<path d="M69.9609 20.5005C69.6538 19.8862 68.8092 19.6559 68.195 19.963L60.3633 24.186C59.7491 24.4931 59.5188 25.3377 59.8259 25.9519C60.0562 26.4126 60.5169 26.643 60.9776 26.643C61.2079 26.643 61.4383 26.5662 61.5918 26.4894L69.4235 22.2664C70.0377 21.9593 70.268 21.1147 69.9609 20.5005Z" fill="#383838"/>
</svg>
