<svg width="19" height="15" viewBox="0 0 19 15" fill="none" xmlns="http://www.w3.org/2000/svg">
<path d="M17.7671 0.643494H1.2329C1.077 0.643676 0.927542 0.705704 0.817326 0.815963C0.70711 0.926222 0.645141 1.0757 0.64502 1.2316V2.41472C0.64502 2.46923 0.70413 2.53179 0.75243 2.55709L9.44321 7.52118C9.46547 7.53391 9.49071 7.54049 9.51635 7.54027C9.54256 7.54035 9.5683 7.53336 9.59087 7.52003L18.019 2.56192C18.0664 2.53547 18.1919 2.46555 18.2391 2.43335C18.2961 2.39448 18.355 2.35929 18.355 2.2896V1.23137C18.3548 1.07551 18.2928 0.926091 18.1826 0.815882C18.0724 0.705672 17.923 0.643676 17.7671 0.643494Z" fill="#FFC406"/>
<path d="M18.2816 4.19865C18.259 4.18575 18.2334 4.17904 18.2073 4.1792C18.1813 4.17936 18.1557 4.18639 18.1333 4.19957L13.3638 7.00581C13.3448 7.01688 13.3285 7.03209 13.3162 7.05031C13.3038 7.06853 13.2958 7.08929 13.2926 7.11105C13.2894 7.13282 13.2911 7.15502 13.2977 7.17602C13.3042 7.19702 13.3154 7.21627 13.3304 7.23235L18.1006 12.3745C18.1143 12.3893 18.1309 12.4012 18.1494 12.4092C18.1679 12.4173 18.1878 12.4215 18.208 12.4214C18.247 12.4213 18.2843 12.4058 18.3119 12.3783C18.3394 12.3507 18.3549 12.3134 18.355 12.2744V4.3263C18.3551 4.30045 18.3484 4.27503 18.3355 4.25261C18.3226 4.23019 18.304 4.21158 18.2816 4.19865Z" fill="#FFC406"/>
<path d="M11.9895 7.9481C11.9669 7.92344 11.9365 7.9073 11.9033 7.90236C11.8702 7.89742 11.8364 7.90399 11.8076 7.92096L9.89582 9.04589C9.78382 9.11061 9.6569 9.14509 9.52754 9.14593C9.39818 9.14678 9.27083 9.11397 9.15798 9.05072L7.47553 8.08955C7.44837 8.07408 7.41699 8.06766 7.38594 8.07122C7.35488 8.07477 7.32577 8.08812 7.3028 8.10933L0.913863 14.0355C0.897114 14.0512 0.884254 14.0705 0.876309 14.092C0.868363 14.1135 0.865552 14.1366 0.868098 14.1594C0.870645 14.1822 0.87848 14.2041 0.890977 14.2233C0.903475 14.2425 0.92029 14.2585 0.940083 14.2701C1.03944 14.3285 1.13535 14.3564 1.23287 14.3564H17.5981C17.6267 14.3564 17.6547 14.3481 17.6786 14.3323C17.7026 14.3166 17.7213 14.2941 17.7326 14.2678C17.7441 14.2416 17.7476 14.2127 17.7428 14.1845C17.738 14.1563 17.725 14.1302 17.7055 14.1093L11.9895 7.9481Z" fill="#FFC406"/>
<path d="M5.89684 7.40828C5.91376 7.39263 5.92677 7.37323 5.93481 7.35163C5.94285 7.33003 5.9457 7.30684 5.94312 7.28394C5.94055 7.26104 5.93262 7.23907 5.91999 7.21979C5.90736 7.20052 5.89037 7.18448 5.87039 7.17299L0.864212 4.31363C0.84187 4.30094 0.81659 4.29435 0.790899 4.2945C0.765208 4.29465 0.740006 4.30154 0.717815 4.31449C0.695624 4.32743 0.677221 4.34598 0.664447 4.36827C0.651672 4.39056 0.644974 4.41582 0.645022 4.44151V11.9441C0.64486 11.9728 0.653104 12.0008 0.668733 12.0248C0.684363 12.0489 0.706692 12.0678 0.732957 12.0792C0.759221 12.0907 0.788269 12.0942 0.816504 12.0893C0.844739 12.0844 0.870922 12.0714 0.891812 12.0517L5.89684 7.40828Z" fill="#FFC406"/>
</svg>
