<svg width="57" height="59" viewBox="0 0 57 59" fill="none" xmlns="http://www.w3.org/2000/svg">
<path d="M55.8048 29.5191L38.1212 23.912V27.5459L44.132 29.4517C44.1449 29.4559 44.1562 29.4639 44.1642 29.4747C44.1722 29.4855 44.1766 29.4985 44.1766 29.5119C44.1766 29.5252 44.1722 29.5382 44.1642 29.549C44.1562 29.5598 44.1449 29.5678 44.132 29.572L38.1212 31.468V35.0993L55.8048 29.5191ZM29.6916 51.0056L34.7522 57.8697C34.7473 53.1747 34.7445 48.4793 34.7438 43.7843C34.7438 39.0227 34.745 34.2623 34.7474 29.5031C34.7544 20.0453 34.7689 10.5891 34.791 1.13446C29.7351 7.97129 24.6952 14.8146 19.6715 21.6645L21.4543 22.2297L23.7851 22.9671L29.6899 15.1166V51.0056H29.6916ZM34.7648 58.102L29.562 51.0465V15.5133L23.8355 23.1181L21.415 22.3525L19.4654 21.7323C24.5986 14.7146 29.7505 7.71781 34.921 0.74189V0.937151C34.8979 10.4603 34.8827 19.9823 34.8754 29.5031C34.8723 34.2647 34.871 39.0251 34.8717 43.7843C34.8724 48.5437 34.8752 53.3037 34.8801 58.0651V58.2605L34.7632 58.102H34.7648ZM22.2257 40.8847L26.3057 46.4188V40.5204L23.1302 36.2129L10.0269 40.4027L18.1571 29.4985L10.0358 18.5706L16.3077 20.5854L18.4691 17.638L0.755114 11.9472L13.7929 29.4867L0.723127 47.0174L21.7841 40.286L22.2257 40.8847ZM26.3183 46.6515L21.7333 40.4341L0.382812 47.2601L13.6334 29.4867L0.415847 11.7047C6.50333 13.6594 12.5903 15.6149 18.6768 17.5712L16.357 20.7344L10.3751 18.8106L18.3171 29.4985L10.3672 40.1607L23.1805 36.0638L26.4368 40.4829V46.8103L26.3199 46.6515H26.3183ZM38.0745 23.7645L56.0329 29.4589C56.0425 29.4621 56.0515 29.4674 56.059 29.4746C56.066 29.4817 56.0716 29.4904 56.0751 29.5C56.0801 29.516 56.0786 29.5332 56.0705 29.5481C56.0625 29.5629 56.049 29.5741 56.0329 29.5792L38.0808 35.2448C38.0732 35.2479 38.065 35.2494 38.0567 35.2494C38.0395 35.2494 38.0231 35.2428 38.0109 35.2309C37.9987 35.2191 37.9918 35.203 37.9917 35.1862V31.4218C37.9918 31.4084 37.9962 31.3954 38.0043 31.3846C38.0124 31.3738 38.0238 31.3658 38.0368 31.3617L43.9018 29.5119L38.041 27.6528C38.027 27.6492 38.0145 27.6413 38.0056 27.6301C37.9967 27.619 37.9918 27.6053 37.9917 27.5911V23.8252L37.9953 23.8056C38.0007 23.7898 38.012 23.7766 38.0272 23.7689C38.0423 23.7613 38.0598 23.7597 38.0761 23.7645H38.0745Z" fill="url(#paint0_linear)"/>
<defs>
<linearGradient id="paint0_linear" x1="0.0294775" y1="29.4122" x2="59.0712" y2="29.4122" gradientUnits="userSpaceOnUse">
<stop stop-color="#FFBF45"/>
<stop offset="0.28" stop-color="#FFDD25"/>
<stop offset="0.58" stop-color="#FFE626"/>
<stop offset="0.79" stop-color="#FFE017"/>
<stop offset="1" stop-color="#FFC83C"/>
</linearGradient>
</defs>
</svg>
