<svg width="78" height="78" viewBox="0 0 78 78" fill="none" xmlns="http://www.w3.org/2000/svg">
<path d="M74.7398 33.9117H72.8355V21.0539C72.8355 18.0375 70.459 15.6609 67.5949 15.6609H66.1629V7.06875C66.1629 4.05234 63.9387 1.67578 61.2422 1.67578C61.2422 1.67578 61.0898 1.67578 60.9223 1.67578L6.59648 15.6457C6.58125 15.6457 6.55078 15.6609 6.53555 15.6609C3.8543 15.8742 1.67578 18.1746 1.67578 21.0539V70.9313C1.67578 73.9477 4.05234 76.3242 6.91641 76.3242H67.5949C70.6113 76.3242 72.9879 73.9477 72.9879 70.9313V57.7383H74.7398C75.6996 57.7383 76.3242 57.0984 76.3242 56.1539V35.5113C76.3242 34.5516 75.532 33.9117 74.7398 33.9117ZM61.5469 4.69219C62.3391 4.84453 63.1312 5.8043 63.1312 7.06875V15.6457H19.302L61.5469 4.69219ZM69.8191 70.9313C69.8191 72.1957 68.8594 73.3078 67.5949 73.3078H6.91641C5.65195 73.3078 4.69219 72.1957 4.69219 70.9313V21.0539C4.69219 19.7895 5.65195 18.6773 6.91641 18.6773H67.4273C68.6918 18.6773 69.6516 19.7895 69.6516 21.0539V33.9117H53.9297C47.257 33.9117 42.0164 39.1523 42.0164 45.825C42.0164 52.4977 47.4094 57.7383 53.9297 57.7383H69.8191V70.9313ZM73.1402 54.7219H53.9297C49.1613 54.7219 45.2004 50.7457 45.2004 45.9926C45.2004 41.2395 49.1766 37.2633 53.9297 37.2633H73.1402V54.7219Z" fill="#383838"/>
<path d="M52 45.5C52 47.2898 53.6279 48.4546 55.2559 48.4546H58.1987C59.8266 48.4546 61.4545 47.2614 61.4545 45.5C61.4545 43.7102 59.8266 42.5455 58.1987 42.5455H55.2872C53.3149 42.5455 52 43.7387 52 45.5Z" fill="#FFB800"/>
</svg>
